<svg id="Layer_1" data-name="Layer 1" xmlns="http://www.w3.org/2000/svg" viewBox="0 0 1041.7 937.53"><g id="Layer_4" data-name="Layer 4"><path d="M824.17,328.15a15,15,0,0,1-15-15V187.24H232.53V259a15,15,0,0,1-30,0V172.24a15,15,0,0,1,15-15H824.17a15,15,0,0,1,15,15V313.15A15,15,0,0,1,824.17,328.15Z"/><path d="M824.17,765.72H217.53a15,15,0,0,1-15-15V693a15,15,0,0,1,30,0v42.7H809.17V631.41a15,15,0,0,1,30,0V750.72A15,15,0,0,1,824.17,765.72Z"/></g><g id="Layer_1-2" data-name="Layer 1"><path d="M487.79,567c-8.34,7.41-8.49,18.74-12.6,29.11,74.79-27.66,158.12-22,233.18,4.93,14.26,5.12,29.59,5.12,44.64,6.78,18.36,2,36.72-2.74,54.52-7.66q39.75-11,79.11-23.38l-27.1,5.4c-50.33,10-100,17-149.67,4.06-20.79-5.43-43.08-11.74-63.48-18.48a258.48,258.48,0,0,0-158.6-.76"/><path d="M484.6,563.86C475.67,572,475,584.3,470.85,595c-1.2,3.11,2.48,6.67,5.54,5.54a291.82,291.82,0,0,1,77.29-17,341.36,341.36,0,0,1,78.88,2.89,388,388,0,0,1,39.36,8.11q9.57,2.49,19,5.44c6.43,2,12.74,4.43,19.17,6.43,13.38,4.14,27.56,4.37,41.39,5.79,14.43,1.49,28.59-.44,42.64-3.81s27.7-7.46,41.45-11.44q21-6.06,41.84-12.52l10.43-3.26c5.56-1.75,3.26-9.8-2.4-8.68-26.71,5.33-53.41,11.12-80.51,14.16-26.61,3-53.74,3.4-80.14-1.62-13.1-2.48-26-6.27-38.8-9.88s-25.45-7.42-38-11.56a263.17,263.17,0,0,0-152-3.66c-3.13.86-6.24,1.8-9.34,2.78-5.5,1.75-3.15,10.44,2.39,8.68a254.08,254.08,0,0,1,150.14-1.16c25.3,7.65,50.39,16.18,76.22,22,26.53,6,53.91,6.69,80.92,4.27,27.38-2.45,54.3-7.92,81.22-13.28l10.36-2.07-2.4-8.68q-41.61,13.1-83.7,24.64c-13.46,3.64-27.21,6.93-41.25,6.7-7-.12-14-1.09-20.91-1.68a161.33,161.33,0,0,1-20.07-2.61c-6.67-1.42-13-3.93-19.45-6.07s-12.8-4.07-19.26-5.86A388.46,388.46,0,0,0,642,578.81a355.73,355.73,0,0,0-80.15-4.89,304.23,304.23,0,0,0-78.29,14.52q-4.77,1.57-9.48,3.31l5.53,5.54c3.51-9,3.9-20.24,11.44-27.13,4.28-3.91-2.1-10.26-6.37-6.36Z"/><path d="M151.7,573.1a371.83,371.83,0,0,1,35.67,36,178.94,178.94,0,0,0,20.49,19.49c7,5.83,12.15,8.66,23.8,8.32a128.14,128.14,0,0,0,19-2.66c39.86-8.68,73.54-19.48,112-33,7.23-2.54,14.63-5.08,22.29-5.19s15.77,2.59,20.3,8.77l-10.13,3.48C338.86,627.64,284,649.62,224.54,647.92c-4.32-.12-10.5-.4-14.35-2.37-4-2.06-8.09-8.19-10.87-11.77-15.19-19.62-32.42-41.06-47.62-60.68"/><path d="M148.52,576.28q11.37,10,21.93,21,5.27,5.46,10.3,11.14c3.36,3.77,6.64,7.58,10.23,11.13s7.29,6.85,11.09,10.09a75,75,0,0,0,9.58,7.34c6.72,4,14.67,5,22.38,4.36,8.82-.7,17.48-2.57,26.07-4.55q14.75-3.39,29.33-7.39c18.95-5.19,37.67-11.15,56.26-17.47q7.24-2.49,14.47-5c4.85-1.7,9.68-3.5,14.66-4.8,1.23-.32,2.48-.61,3.73-.85.54-.11,1.09-.21,1.64-.3.09,0,1.06-.15.58-.09l.82-.09a34.5,34.5,0,0,1,6.74-.06l.76.08c-.17,0-.92-.15-.06,0,.5.09,1,.17,1.5.28a24.84,24.84,0,0,1,2.93.79c.48.16,1,.33,1.42.51.19.08.74.38,0,0l.68.32a20.12,20.12,0,0,1,2.59,1.48c.21.14,1.32,1,.58.39a11.62,11.62,0,0,1,1.12,1c.36.37.63.61.92.92s1.22,1.49.61.68l2.69-6.61C385.29,607,366.59,613.71,347.78,620a578.91,578.91,0,0,1-56,16.24q-7,1.59-14.13,2.9-3.54.63-7.1,1.22l-3.68.56-1.62.23-.92.13c-.84.12,1.06-.14-.42.06a258.56,258.56,0,0,1-28.9,2.18c-4.61.08-9.24.07-13.85-.2a27.39,27.39,0,0,1-2.93-.23l-.79-.09c.06,0,.73.11.21,0s-1.16-.18-1.74-.3a23.21,23.21,0,0,1-2.72-.73c-.16-.06-.33-.13-.5-.18.86.26.35.17.12,0-.43-.23-.84-.46-1.26-.72-.12-.08-.72-.48-.23-.14s0,0-.09-.08a14.31,14.31,0,0,1-1.09-1c-.74-.71-1.44-1.47-2.11-2.25-.35-.4-.68-.81-1-1.22l-.49-.62s-.45-.56-.14-.17l-.24-.31-.46-.62-.9-1.19C202,629.72,199,626,196,622.22c-12.18-15.59-24.53-31-36.69-46.64L155,569.94c-1.45-1.87-4.86-1.64-6.36,0-1.82,2-1.55,4.36,0,6.36,12.27,15.84,24.78,31.51,37.15,47.27q4.55,5.79,9.07,11.6c.37.49.75,1,1.12,1.45-.48-.62.09.12.26.35l1.81,2.45c1.37,1.82,2.76,3.65,4.3,5.34a20.24,20.24,0,0,0,10.82,6.52,69.61,69.61,0,0,0,13.12,1.19,273.63,273.63,0,0,0,59.46-5.75c19.27-3.88,38.16-9.41,56.83-15.52,19-6.22,37.84-13,56.76-19.52l7.14-2.45c2.45-.84,4.56-4.13,2.69-6.61-5.65-7.53-14.72-11.09-24-11-10.62.09-20.68,4.33-30.55,7.77-18.69,6.5-37.49,12.73-56.5,18.24q-14.32,4.14-28.8,7.75c-9.1,2.25-18.25,4.56-27.52,6l-2.94.43c-.7.11.72-.08,0,0l-.77.1-1.7.2c-1.86.2-3.72.34-5.59.37a26.62,26.62,0,0,1-6.24-.29c1.13.27-.18,0-.5-.09s-.85-.16-1.28-.26q-1.22-.27-2.4-.66c-.38-.13-.76-.26-1.13-.41a3.32,3.32,0,0,1-.55-.22s1,.47.26.1-1.41-.68-2.1-1.07a42.84,42.84,0,0,1-4.2-2.83c-.4-.29.25.19.26.21l-.52-.42-1.06-.86c-1-.79-1.92-1.6-2.87-2.41q-2.85-2.41-5.61-4.92c-3.69-3.35-7.28-6.83-10.62-10.52s-6.73-7.67-10.19-11.41Q171.7,585.29,160.5,575q-2.79-2.58-5.64-5.07c-1.76-1.56-4.65-1.87-6.36,0-1.57,1.7-1.89,4.7,0,6.36Z"/><path d="M486.2,377c2.84,3.94,2.63,6.89,4.66,11.3s5.8,8.71,10.66,8.79a16.51,16.51,0,0,0,6.53-1.73c70.08-29.23,142.59-52.19,215-75.12,5.33-1.68,10.93-3.39,16.42-2.31,4.32.84,8.11,3.34,11.72,5.86,62.5,43.69,107,112.36,121.41,187.27-8.23-75.53-47.36-147.23-106.42-195-7.48-6-15.68-11.91-25.19-13.3-8.66-1.27-17.37,1.33-25.74,3.89-77.15,23.63-151.94,46.61-229,70.37"/><path d="M482.31,379.23c2,2.94,2.56,6.26,3.94,9.61a22.86,22.86,0,0,0,7.69,10.2,13.94,13.94,0,0,0,12.43,1.68c4.4-1.4,8.64-3.5,12.92-5.24q26.54-10.8,53.47-20.59c35.79-13.07,72-25,108.25-36.65q13.56-4.33,27.14-8.64l13.93-4.42c4.22-1.33,8.59-3,13.06-3.16,4.15-.13,7.59,1.51,11,3.72s6.46,4.46,9.6,6.8c6,4.45,11.77,9.17,17.38,14.1a297,297,0,0,1,58.36,70A293.34,293.34,0,0,1,865.86,501q1.3,5.58,2.39,11.22c1,4.91,9.4,3.87,8.84-1.2a299.92,299.92,0,0,0-75-167.09A279.14,279.14,0,0,0,768.35,312c-6.65-5.3-13.73-10.36-22-12.73-9.07-2.6-18.45-1-27.34,1.52-18.59,5.31-37,11.3-55.48,17L609,334.49q-55,16.89-110,33.82l-14,4.31c-5.51,1.7-3.16,10.39,2.4,8.68Q541.57,364.61,595.74,348l108.19-33.24c8.78-2.69,17.63-6,26.71-7.46,8.14-1.31,15.59.64,22.57,4.85,6.56,4,12.44,9.07,18.19,14.11s11.13,10.16,16.39,15.56a291.78,291.78,0,0,1,51.86,73.31,288.73,288.73,0,0,1,27.11,85.63c.52,3.42,1,6.86,1.34,10.31l8.84-1.2a300.15,300.15,0,0,0-31.52-87,306.46,306.46,0,0,0-56.16-73.54,291.72,291.72,0,0,0-36.36-29.81c-3.55-2.46-7.37-4.81-11.61-5.8-4.83-1.14-9.78-.54-14.53.71-9.12,2.39-18.08,5.63-27.07,8.49-36.43,11.57-72.82,23.31-108.87,36q-27.2,9.57-54.09,20-13.26,5.16-26.42,10.61c-2.94,1.21-7.57,3.84-10.19,2.71s-4.61-4.24-5.67-7c-1.38-3.63-2.11-7.31-4.36-10.57a4.61,4.61,0,0,0-6.16-1.62c-2,1.16-3,4.15-1.62,6.16Z"/><path d="M158.56,482.77q45.57-92.05,91.68-183.85c1.53-3.05,3.21-6.26,6.15-8,2.4-1.44,5.32-1.68,8.12-1.71,19.49-.2,38,8,55.38,16.86a668,668,0,0,1,129.48,86c3.21-11.61,6.28-24.64.42-35.17-2.41-4.34-6.14-7.79-9.93-11a185.67,185.67,0,0,0-33.07-22.41c-11.76-6.24-24.15-11.21-36.51-16.16L310,283.2c-13.53-5.42-27.09-10.85-41.06-15-2.29-.69-4.77-1.34-7-.55a11,11,0,0,0-4.53,3.7C250.28,280,245.12,290,240.11,300c-29.23,58.14-59,121.72-81.55,182.77"/><path d="M162.44,485q20-40.32,40-80.56T242.65,324l10-20c.75-1.49,1.48-3,2.25-4.46.29-.53.58-1.06.88-1.57s.49-.76.73-1.14c.45-.74-.26.2.37-.5.19-.22.38-.44.59-.65-.07.07,1-.89.52-.53s.7-.45.63-.41a6,6,0,0,1,.87-.46c-.51.22.25-.06.29-.07l1.43-.35c.06,0,.87-.13.28-.06.49-.06,1-.08,1.49-.11,13-.64,26.28,3.39,38.07,8.38,12.56,5.32,24.66,11.86,36.6,18.44s23.54,13.46,35,20.71a658.83,658.83,0,0,1,65.8,47.57q3.87,3.18,7.7,6.43c2.52,2.14,6.56,1.48,7.52-2,2-7.34,3.93-14.92,3.89-22.58a32.57,32.57,0,0,0-7.75-21.41c-5-5.84-11.5-10.58-17.63-15.09a184.35,184.35,0,0,0-19.46-12.56c-14.54-8.15-30.15-14.17-45.59-20.35l-47.4-19c-15.53-6.22-31-12.68-47-17.67-4-1.25-8.39-2.77-12.53-1.21s-6.57,5.18-9.07,8.49a135.93,135.93,0,0,0-11.94,19.68c-14.91,28.83-28.86,58.24-42.36,87.75-13.71,30-26.72,60.28-38.46,91.07q-2.13,5.56-4.19,11.16a4.52,4.52,0,0,0,3.14,5.53,4.63,4.63,0,0,0,5.54-3.14c11-29.82,23.19-58.89,36.19-87.83s26.79-57.7,41-86.17c3.39-6.81,6.71-13.66,10.42-20.3,1.83-3.28,3.77-6.5,5.88-9.6.88-1.28,2.1-3,2.84-3.94a21.36,21.36,0,0,1,3.53-4c-.62.48.56-.31.58-.32-.23.11-.68.16.24-.05a4.06,4.06,0,0,1,1.39,0,41.82,41.82,0,0,1,6,1.7c3.75,1.18,7.46,2.44,11.16,3.76,7.57,2.7,15.05,5.64,22.52,8.62q23.1,9.23,46.18,18.49c15,6,30.08,11.63,44.57,18.46a188.65,188.65,0,0,1,38.48,24,85.12,85.12,0,0,1,8,7.07,23.8,23.8,0,0,1,5.23,7.79,27.6,27.6,0,0,1,1.22,4.58s.21,1.52.11.68c0,.31.07.63.09,1,.08,1,.12,1.92.13,2.88a45.73,45.73,0,0,1-.3,5.36c-.14,1.25-.42,2.93-.77,4.69-.69,3.42-1.57,6.79-2.5,10.14l7.52-2a675.29,675.29,0,0,0-67.33-50.26,603.4,603.4,0,0,0-72.1-40.93c-12.95-6.12-26.44-11.23-40.78-12.67-6.9-.69-15-1.21-20.58,3.7a25,25,0,0,0-5.43,7.89L241.15,307q-20.44,40.71-40.77,81.5T159.7,470.36l-5,10.14c-1,2.11-.63,5,1.62,6.16,2,1.07,5,.64,6.15-1.62Z"/><path d="M307.1,429.83a422.57,422.57,0,0,1,60-21.45c20.46-5.55,41.51-9.42,62.72-10.41,4.6-.22,9.75-.34,13.89,2a11.06,11.06,0,0,1,4,3.75,7.24,7.24,0,0,1,1.25,4.76,7.46,7.46,0,0,1-2.25,4.19A19,19,0,0,1,442,416a126.1,126.1,0,0,1-13.3,5.75,275.86,275.86,0,0,1-61,16.33c-10.37,1.53-21.11,2.9-31.61,2.24-8.93-.56-18.1-3.28-24.46-9.83a23.3,23.3,0,0,1-3.52-4.69c-1.89-3.27-7-.32-5.07,3,4.83,8.39,13.66,13.73,22.9,16,11,2.67,22.65,1.55,33.8.27a279.39,279.39,0,0,0,65-15.48q7.88-2.94,15.57-6.31c4.09-1.8,8.45-3.83,11.34-7.38a12.65,12.65,0,0,0,1.7-13.82,17.62,17.62,0,0,0-11.21-8.92c-5.32-1.51-11-1.12-16.41-.76s-11,.91-16.49,1.62a316,316,0,0,0-33.57,6.17,408.48,408.48,0,0,0-63.82,21.29c-2.61,1.1-5.2,2.21-7.79,3.35-1.45.64-1.78,2.76-1,4a3,3,0,0,0,4,1.06Z"/><path d="M581.79,420.84a26.91,26.91,0,0,1-8.91-13.49,10.55,10.55,0,0,1-.63-3.85,2.64,2.64,0,0,1,1.57-2.06,31,31,0,0,1,8.21-3.1A84.52,84.52,0,0,1,600.76,396c6.91-.26,13.83-.3,20.74-.26a533.07,533.07,0,0,1,83,6.89,137.17,137.17,0,0,1,18.44,4.13c5.65,1.73,11.65,3.95,16.44,7.49,1.92,1.42,3.3,3.24,3,5.71s-2,4.79-3.49,6.56a34.19,34.19,0,0,1-11.69,8.8c-9,4.33-19.58,5.62-29.58,6.21a326.86,326.86,0,0,1-37.3.11c-24.37-1.39-48.92-6.17-71-16.93q-4.1-2-8.06-4.25c-3.14-1.78-6,3.05-2.83,4.83,22.92,13,48.85,19.28,75,21.46a311.58,311.58,0,0,0,39.13.62c11.25-.48,22.86-1.34,33.45-5.48a44.3,44.3,0,0,0,14.12-8.55c4.39-4.07,8.87-10,7.69-16.34-1.2-6.5-8.83-9.9-14.22-12.26a97.17,97.17,0,0,0-19.06-5.91c-6.71-1.42-13.51-2.41-20.3-3.35q-11.07-1.54-22.2-2.65-22-2.19-44-2.59-11-.21-22.06,0a129.89,129.89,0,0,0-20.46,1.65,54.23,54.23,0,0,0-9.62,2.59c-2.93,1.11-6.25,2.36-8,5.15-1.88,3-1.08,6.77-.11,9.94a32.38,32.38,0,0,0,4,8.37,31.61,31.61,0,0,0,6.18,6.88,2.87,2.87,0,0,0,3.95,0,2.82,2.82,0,0,0,0-4h0Z"/><path d="M542.18,427.84c22.51,8.23,47.39,9.14,69,20a65.13,65.13,0,0,1,15.18,10.35c2.76,2.57,6.92-1.57,4.15-4.15-18-16.75-43-20.6-66-26a179.57,179.57,0,0,1-20.73-5.94,2.91,2.91,0,1,0-1.61,5.6Z"/><path d="M451.12,425.92a363.36,363.36,0,0,0-47.47,17.8q-6.47,3-12.81,6.16a2.94,2.94,0,0,0,3,5.05,352.48,352.48,0,0,1,45.34-19.05q6.72-2.31,13.54-4.31c3.61-1.07,2.08-6.74-1.56-5.66Z"/><path d="M454.22,366.25c11.38,25.68,5,55.31-1.78,81.3a499.16,499.16,0,0,1-29.69,83.09q-2.58,5.61-5.3,11.14c-.92,1.87-2.13,3.8-2.51,5.87a6.49,6.49,0,0,0,1.88,6,51.55,51.55,0,0,0,5,3.94l5,3.88,10.67,8.25a3,3,0,0,0,4.15,0c1-1,1.25-3.16,0-4.14L422.88,551c-.69-.53-2.25-1.4-2.22-2.18a4.71,4.71,0,0,1,.64-1.63c.47-1,.95-1.91,1.42-2.87q2.41-4.92,4.72-9.9,9.27-20,16.82-40.83t13.25-42.28c3.64-13.71,6.88-27.61,8.17-41.76,1.43-15.73.06-31.72-6.39-46.27a2.93,2.93,0,0,0-5.06,2.95Z"/><path d="M642.3,440c3.92,0,7.68-3.45,7.5-7.5a7.62,7.62,0,0,0-7.5-7.5c-3.92,0-7.68,3.45-7.5,7.5A7.63,7.63,0,0,0,642.3,440Z"/><path d="M389.41,437.94c3.92,0,7.68-3.45,7.5-7.5a7.62,7.62,0,0,0-7.5-7.5c-3.93,0-7.69,3.45-7.5,7.5A7.63,7.63,0,0,0,389.41,437.94Z"/></g><g id="Layer_3" data-name="Layer 3"><path d="M566,396.34c7.64-10.37,17.9-18.5,29.24-24.52a127.08,127.08,0,0,1,37.44-12.44,151.41,151.41,0,0,1,43.81-1.49c14.34,1.69,28.5,6.2,40.43,14.45,10.3,7.12,19.1,17.24,23.47,29,.57,1.51,1.06,3.06,1.49,4.61,1,3.72,6.83,2.14,5.79-1.59-3.69-13.26-12.06-24.87-22.73-33.45-11.85-9.51-26.09-15.29-41-17.92-15.62-2.75-31.68-2.46-47.35-.25a137.66,137.66,0,0,0-40,11.71c-12.31,5.84-23.69,14-32.42,24.54-1.17,1.41-2.29,2.87-3.38,4.34a3,3,0,0,0,1.07,4.1h0a3.08,3.08,0,0,0,4.1-1.08Z"/><path d="M305.26,422.08a233.39,233.39,0,0,1,36.58-38.8c12.42-10.37,26.46-19.33,41.89-24.44a83.7,83.7,0,0,1,26.71-4.41c3.86,0,3.87-6,0-6-17.14-.08-33.75,5.34-48.6,13.66-15.24,8.54-28.74,20-40.87,32.48a252.66,252.66,0,0,0-20.89,24.48c-1,1.3-.21,3.36,1.07,4.11a3.09,3.09,0,0,0,4.11-1.08Z"/><path d="M650.6,705.42a1.5,1.5,0,1,0-1.5-1.5A1.5,1.5,0,0,0,650.6,705.42Z"/></g></svg>