<svg width="512" height="512" viewBox="0 0 512 512" fill="none" xmlns="http://www.w3.org/2000/svg">
<path d="M404.501 184.071C402.553 184.071 400.685 183.289 399.308 181.897C397.931 180.505 397.157 178.616 397.157 176.647V114.332H114.843V149.858C114.843 151.826 114.069 153.715 112.692 155.107C111.315 156.499 109.447 157.281 107.499 157.281C105.552 157.281 103.684 156.499 102.306 155.107C100.929 153.715 100.156 151.826 100.156 149.858V106.909C100.156 104.94 100.929 103.051 102.306 101.659C103.684 100.267 105.552 99.4849 107.499 99.4849H404.501C406.448 99.4849 408.316 100.267 409.694 101.659C411.071 103.051 411.844 104.94 411.844 106.909V176.647C411.844 178.616 411.071 180.505 409.694 181.897C408.316 183.289 406.448 184.071 404.501 184.071Z" fill="#F5F3FF"/>
<path d="M404.501 400.632H107.499C105.552 400.632 103.684 399.85 102.306 398.458C100.929 397.066 100.156 395.177 100.156 393.208V364.652C100.156 362.683 100.929 360.795 102.306 359.402C103.684 358.01 105.552 357.228 107.499 357.228C109.447 357.228 111.315 358.01 112.692 359.402C114.069 360.795 114.843 362.683 114.843 364.652V385.785H397.157V334.16C397.157 332.191 397.931 330.303 399.308 328.91C400.685 327.518 402.553 326.736 404.501 326.736C406.448 326.736 408.316 327.518 409.694 328.91C411.071 330.303 411.844 332.191 411.844 334.16V393.208C411.844 395.177 411.071 397.066 409.694 398.458C408.316 399.85 406.448 400.632 404.501 400.632Z" fill="#F5F3FF"/>
<path d="M239.814 302.302C235.731 305.969 235.658 311.577 233.646 316.709C270.262 303.019 311.059 305.821 347.807 319.149C354.788 321.683 362.294 321.683 369.662 322.504C378.651 323.494 387.639 321.148 396.354 318.713C409.328 315.084 422.238 311.227 435.085 307.142L421.817 309.815C397.176 314.764 372.859 318.228 348.541 311.824C338.363 309.137 327.45 306.014 317.462 302.678C292.258 294.333 265.097 294.201 239.814 302.302Z" fill="#F5F3FF"/>
<path d="M238.253 300.728C233.881 304.771 233.553 310.844 231.521 316.115C230.933 317.654 232.735 319.416 234.233 318.857C246.411 314.332 259.141 311.501 272.073 310.443C284.957 309.409 297.917 309.889 310.692 311.873C317.179 312.876 323.611 314.216 329.962 315.887C333.085 316.709 336.186 317.606 339.264 318.579C342.412 319.569 345.501 320.772 348.649 321.762C355.2 323.811 362.142 323.925 368.913 324.627C375.978 325.365 382.91 324.41 389.789 322.742C396.667 321.074 403.35 319.05 410.082 317.08C416.936 315.08 423.764 313.015 430.566 310.884L435.673 309.27C438.395 308.404 437.269 304.42 434.498 304.974C421.421 307.612 408.349 310.478 395.081 311.982C382.053 313.467 368.771 313.665 355.846 311.18C349.432 309.953 343.117 308.077 336.85 306.291C330.583 304.504 324.39 302.618 318.246 300.569C294.156 292.58 268.271 291.95 243.829 298.758C242.297 299.184 240.774 299.649 239.256 300.134C236.564 301 237.714 305.301 240.426 304.43C264.312 296.759 289.933 296.558 313.933 303.856C326.319 307.642 338.603 311.863 351.249 314.744C364.237 317.713 377.642 318.055 390.866 316.857C404.271 315.645 417.45 312.937 430.63 310.285L435.702 309.26L434.527 304.964C420.946 309.285 407.291 313.378 393.549 317.159C386.959 318.961 380.227 320.589 373.353 320.475C369.926 320.416 366.499 319.936 363.116 319.644C359.817 319.424 356.535 318.993 353.29 318.352C350.025 317.649 346.926 316.407 343.768 315.348C340.61 314.289 337.501 313.333 334.338 312.447C328.07 310.681 321.717 309.239 315.303 308.127C302.355 305.828 289.192 305.016 276.063 305.707C263.031 306.396 250.144 308.812 237.734 312.893C236.177 313.414 234.63 313.96 233.092 314.531L235.8 317.273C237.518 312.819 237.709 307.256 241.401 303.846C243.496 301.911 240.373 298.768 238.282 300.698L238.253 300.728Z" fill="#F5F3FF"/>
<path d="M75.2699 305.301C81.4848 310.832 87.3195 316.785 92.7334 323.118C95.8191 326.597 99.1735 329.822 102.765 332.764C106.192 335.649 108.713 337.05 114.417 336.881C117.546 336.678 120.655 336.238 123.719 335.565C143.234 331.269 159.723 325.924 178.553 319.233C182.092 317.976 185.715 316.719 189.465 316.664C193.216 316.61 197.186 317.946 199.404 321.005L194.445 322.727C166.9 332.294 140.042 343.172 110.931 342.331C108.816 342.271 105.791 342.133 103.906 341.158C101.947 340.138 99.945 337.104 98.5839 335.332C91.1471 325.622 82.7116 315.011 75.2699 305.301Z" fill="#F5F3FF"/>
<path d="M73.713 306.875C77.4241 310.174 81.0029 313.639 84.4496 317.268C86.1697 319.07 87.8506 320.907 89.4923 322.782C91.1373 324.647 92.7432 326.533 94.5008 328.29C96.2584 330.047 98.0699 331.68 99.9303 333.284C101.394 334.621 102.963 335.836 104.62 336.916C107.91 338.896 111.803 339.391 115.577 339.074C119.896 338.728 124.135 337.802 128.341 336.822C133.155 335.704 137.942 334.485 142.7 333.165C151.978 330.596 161.143 327.647 170.244 324.519C172.607 323.7 174.969 322.876 177.329 322.044C179.703 321.203 182.068 320.312 184.506 319.668C185.108 319.51 185.72 319.367 186.332 319.248C186.597 319.193 186.866 319.144 187.135 319.099C187.179 319.099 187.654 319.025 187.419 319.055C187.184 319.084 187.772 319.015 187.82 319.01C188.917 318.894 190.022 318.884 191.12 318.981L191.492 319.02C191.409 319.02 191.042 318.946 191.463 319.02C191.708 319.065 191.953 319.104 192.197 319.159C192.682 319.262 193.161 319.392 193.632 319.55C193.867 319.629 194.121 319.713 194.327 319.802C194.42 319.842 194.689 319.99 194.327 319.802L194.66 319.961C195.099 320.174 195.523 320.418 195.928 320.693C196.031 320.762 196.574 321.188 196.212 320.886C196.403 321.039 196.584 321.198 196.76 321.381C196.937 321.564 197.069 321.683 197.211 321.836C197.279 321.915 197.808 322.574 197.509 322.173L198.826 318.901C189.632 322.094 180.477 325.4 171.268 328.528C162.268 331.671 153.118 334.354 143.851 336.565C141.566 337.09 139.26 337.568 136.933 338C135.778 338.211 134.619 338.413 133.457 338.604L131.655 338.881L130.862 338.995L130.412 339.059C130.001 339.119 130.931 338.99 130.206 339.089C125.514 339.718 120.79 340.079 116.057 340.168C113.8 340.208 111.533 340.203 109.276 340.069C108.787 340.069 108.297 340.005 107.842 339.955L107.455 339.911C107.485 339.911 107.813 339.965 107.558 339.911C107.303 339.856 106.99 339.822 106.706 339.762C106.255 339.671 105.81 339.551 105.374 339.401C105.296 339.371 105.213 339.337 105.13 339.312C105.551 339.44 105.301 339.396 105.188 339.337C104.978 339.223 104.777 339.109 104.572 338.98C104.513 338.941 104.219 338.743 104.459 338.911C104.699 339.079 104.459 338.911 104.415 338.871C104.234 338.718 104.057 338.56 103.881 338.376C103.519 338.025 103.176 337.649 102.848 337.263C102.677 337.065 102.515 336.862 102.359 336.659L102.119 336.352C102.119 336.352 101.898 336.075 102.05 336.268L101.933 336.115L101.707 335.808L101.267 335.219C99.8715 333.323 98.4175 331.472 96.9732 329.611C91.01 321.896 84.9637 314.269 79.0103 306.528L76.8611 303.737C76.1512 302.812 74.4817 302.925 73.7473 303.737C72.8563 304.727 72.9884 305.895 73.7473 306.885C79.7545 314.724 85.8792 322.48 91.9354 330.28C93.4172 332.19 94.8973 334.104 96.3759 336.021C96.557 336.263 96.7431 336.516 96.9242 336.738C96.6892 336.431 96.9683 336.798 97.0515 336.911L97.9377 338.124C98.6084 339.025 99.2889 339.93 100.043 340.767C101.422 342.388 103.278 343.519 105.34 343.994C107.458 344.398 109.609 344.595 111.764 344.583C121.541 344.714 131.303 343.76 140.874 341.737C150.309 339.817 159.557 337.08 168.697 334.056C177.999 330.977 187.223 327.622 196.486 324.395L199.982 323.182C201.181 322.767 202.214 321.138 201.299 319.911C198.533 316.184 194.092 314.422 189.549 314.467C184.349 314.511 179.424 316.61 174.592 318.312C165.442 321.529 156.237 324.613 146.93 327.34C142.256 328.709 137.556 329.988 132.83 331.175C128.375 332.289 123.895 333.432 119.357 334.145L117.918 334.358C117.575 334.412 118.27 334.318 117.918 334.358L117.541 334.407L116.708 334.506C115.798 334.605 114.887 334.674 113.972 334.689C112.951 334.766 111.925 334.717 110.917 334.546C111.47 334.679 110.828 334.546 110.672 334.501C110.515 334.457 110.256 334.422 110.045 334.372C109.647 334.283 109.255 334.175 108.87 334.046C108.684 333.982 108.498 333.917 108.317 333.843C108.223 333.818 108.133 333.781 108.048 333.734C108.048 333.734 108.537 333.967 108.175 333.784C107.813 333.6 107.485 333.447 107.147 333.254C106.434 332.829 105.748 332.361 105.09 331.853C104.895 331.71 105.213 331.947 105.218 331.957L104.963 331.749L104.444 331.324C103.955 330.933 103.504 330.532 103.039 330.131C102.109 329.336 101.193 328.524 100.293 327.696C98.486 326.038 96.7284 324.316 95.0932 322.49C93.458 320.663 91.7983 318.694 90.1043 316.843C86.7392 313.17 83.2306 309.638 79.5783 306.246C78.6676 305.398 77.7472 304.562 76.817 303.737C75.9553 302.965 74.5404 302.812 73.7032 303.737C72.9346 304.578 72.7779 306.063 73.7032 306.885L73.713 306.875Z" fill="#F5F3FF"/>
<path d="M239.036 208.228C240.426 210.178 240.323 211.638 241.317 213.821C242.311 216.003 244.157 218.131 246.536 218.171C247.649 218.112 248.738 217.82 249.733 217.315C284.043 202.848 319.543 191.485 354.994 180.136C357.603 179.305 360.345 178.459 363.033 178.993C365.148 179.409 367.003 180.646 368.771 181.893C399.37 203.516 421.171 237.502 428.211 274.577C424.182 237.196 405.025 201.71 376.11 178.068C372.448 175.098 368.433 172.173 363.777 171.485C359.537 170.857 355.273 172.144 351.175 173.411C313.404 185.105 276.788 196.479 239.06 208.238" fill="#F5F3FF"/>
<path d="M237.131 209.351C238.111 210.806 238.385 212.449 239.06 214.107C239.814 216.118 241.12 217.869 242.825 219.155C243.704 219.766 244.713 220.16 245.77 220.305C246.827 220.449 247.903 220.34 248.911 219.987C251.065 219.294 253.141 218.255 255.236 217.394C263.899 213.83 272.625 210.433 281.414 207.203C298.937 200.735 316.664 194.83 334.412 189.064C338.838 187.636 343.267 186.21 347.699 184.788L354.519 182.601C356.585 181.943 358.725 181.116 360.913 181.037C362.945 180.973 364.629 181.784 366.298 182.878C367.968 183.972 369.461 185.085 370.998 186.243C373.936 188.446 376.761 190.782 379.507 193.222C390.738 203.215 400.375 214.901 408.08 227.866C415.805 240.811 421.484 254.896 424.911 269.612C425.336 271.453 425.726 273.304 426.082 275.165C426.571 277.595 430.684 277.081 430.41 274.571C426.996 243.811 414.158 214.898 393.691 191.876C388.626 186.154 383.101 180.867 377.172 176.068C373.916 173.445 370.45 170.941 366.401 169.768C361.961 168.481 357.368 169.273 353.016 170.52C343.915 173.148 334.901 176.112 325.854 178.934L299.157 187.209C281.205 192.781 263.254 198.361 245.303 203.947L238.448 206.08C235.751 206.921 236.901 211.222 239.623 210.376C257.304 204.869 274.984 199.369 292.665 193.875C310.345 188.381 328.002 182.898 345.633 177.424C349.932 176.093 354.264 174.455 358.71 173.732C362.695 173.084 366.342 174.049 369.76 176.132C372.971 178.112 375.85 180.621 378.665 183.116C381.48 185.61 384.114 188.144 386.69 190.816C396.953 201.515 405.517 213.754 412.079 227.099C418.663 240.439 423.141 254.739 425.352 269.479C425.607 271.171 425.842 272.874 426.008 274.581L430.336 273.987C427.423 258.915 422.218 244.39 414.904 230.93C407.613 217.461 398.343 205.19 387.409 194.533C381.876 189.142 375.923 184.208 369.608 179.78C367.87 178.562 366 177.399 363.924 176.909C361.559 176.345 359.136 176.642 356.81 177.261C352.345 178.444 347.959 180.047 343.557 181.463C325.722 187.189 307.906 192.999 290.256 199.28C281.378 202.44 272.551 205.74 263.775 209.178C259.447 210.884 255.135 212.634 250.84 214.429C249.4 215.028 247.134 216.329 245.851 215.77C244.568 215.211 243.594 213.672 243.075 212.306C242.399 210.509 242.042 208.688 240.94 207.075C240.635 206.575 240.152 206.214 239.591 206.064C239.03 205.915 238.433 205.99 237.925 206.273C236.945 206.847 236.456 208.327 237.131 209.321V209.351Z" fill="#F5F3FF"/>
<path d="M78.6284 260.595C93.502 230.224 108.464 199.893 123.514 169.604C124.263 168.095 125.085 166.506 126.524 165.645C127.699 164.932 129.129 164.814 130.5 164.799C140.042 164.7 149.104 168.758 157.613 173.143C180.31 184.789 201.584 199.073 221.004 215.706C222.576 209.96 224.079 203.511 221.21 198.3C220.03 196.152 218.204 194.444 216.348 192.856C211.361 188.582 205.933 184.864 200.158 181.765C194.4 178.676 188.334 176.217 182.283 173.767L152.771 161.824C146.147 159.142 139.508 156.455 132.669 154.401C131.548 154.059 130.333 153.737 129.242 154.128C128.352 154.525 127.586 155.158 127.024 155.96C123.533 160.226 121.007 165.19 118.554 170.139C104.243 198.913 89.6636 230.38 78.6284 260.595Z" fill="#F5F3FF"/>
<path d="M80.528 261.719C87.0558 248.418 93.5836 235.128 100.111 221.848C106.639 208.568 113.201 195.294 119.798 182.027L124.693 172.129C125.061 171.391 125.418 170.644 125.795 169.921C125.937 169.659 126.079 169.397 126.226 169.144C126.373 168.892 126.466 168.768 126.583 168.58C126.804 168.214 126.456 168.679 126.764 168.333C126.857 168.224 126.95 168.115 127.053 168.011C127.019 168.046 127.543 167.57 127.308 167.749C127.073 167.927 127.651 167.526 127.616 167.546C127.753 167.461 127.896 167.385 128.042 167.318C127.792 167.427 128.165 167.288 128.184 167.283L128.884 167.11C128.914 167.11 129.31 167.046 129.021 167.08C129.261 167.051 129.511 167.041 129.751 167.026C136.115 166.709 142.617 168.704 148.389 171.173C154.538 173.806 160.462 177.043 166.308 180.3C172.154 183.556 177.833 186.961 183.444 190.549C194.649 197.722 205.408 205.584 215.658 214.093C216.921 215.142 218.178 216.203 219.428 217.275C220.662 218.334 222.64 218.007 223.11 216.285C224.089 212.652 225.034 208.901 225.014 205.11C225.051 201.231 223.704 197.47 221.22 194.514C218.772 191.623 215.59 189.278 212.589 187.045C209.544 184.775 206.362 182.699 203.061 180.829C195.943 176.796 188.3 173.816 180.741 170.758L157.535 161.354C149.932 158.276 142.358 155.079 134.524 152.609C132.566 151.99 130.417 151.238 128.39 152.01C126.363 152.782 125.173 154.574 123.949 156.212C121.734 159.287 119.778 162.545 118.104 165.952C110.804 180.221 103.974 194.776 97.3648 209.381C90.6526 224.229 84.2831 239.215 78.5354 254.453C77.8402 256.291 77.1564 258.132 76.4841 259.976C76.332 260.545 76.4082 261.152 76.6961 261.664C76.9839 262.177 77.4602 262.554 78.0214 262.713C78.5843 262.855 79.1798 262.773 79.6847 262.484C80.1895 262.195 80.565 261.721 80.7336 261.159C86.1191 246.401 92.0871 232.014 98.4517 217.691C104.816 203.368 111.568 189.134 118.525 175.044C120.184 171.673 121.81 168.283 123.626 164.997C124.522 163.374 125.472 161.78 126.505 160.246C126.936 159.612 127.533 158.761 127.895 158.296C128.389 157.567 128.97 156.902 129.624 156.316C129.32 156.554 129.898 156.163 129.907 156.158C129.795 156.212 129.575 156.237 130.025 156.133C130.25 156.096 130.48 156.096 130.706 156.133C131.704 156.341 132.685 156.622 133.643 156.974C135.479 157.558 137.295 158.182 139.107 158.835C142.813 160.171 146.475 161.626 150.132 163.101C157.672 166.147 165.208 169.197 172.741 172.252C180.085 175.222 187.468 178.008 194.562 181.389C201.291 184.566 207.617 188.552 213.401 193.262C214.777 194.345 216.085 195.514 217.318 196.761C218.416 197.861 219.286 199.172 219.878 200.616C220.141 201.353 220.341 202.111 220.476 202.883C220.476 202.883 220.579 203.635 220.53 203.219C220.53 203.373 220.564 203.531 220.574 203.714C220.613 204.209 220.632 204.664 220.637 205.14C220.64 206.026 220.591 206.912 220.49 207.792C220.422 208.411 220.285 209.242 220.113 210.114C219.776 211.806 219.345 213.474 218.889 215.132L222.571 214.142C212.103 205.169 201.094 196.861 189.607 189.268C178.314 181.707 166.52 174.938 154.308 169.011C147.968 165.982 141.364 163.453 134.343 162.74C130.965 162.399 126.999 162.141 124.267 164.571C123.088 165.63 122.309 167.046 121.609 168.476L119.063 173.608C112.392 187.04 105.738 200.486 99.1029 213.944C92.4674 227.403 85.8286 240.906 79.1866 254.453L76.7386 259.472C76.2491 260.516 76.4302 261.946 77.5318 262.52C78.5109 263.05 79.9797 262.837 80.5427 261.719H80.528Z" fill="#F5F3FF"/>
<path d="M151.351 234.394C160.866 230.117 170.686 226.568 180.726 223.778C190.743 221.031 201.049 219.116 211.433 218.626C213.685 218.517 216.207 218.458 218.233 219.616C219.029 220.06 219.702 220.698 220.192 221.472C220.662 222.16 220.879 222.994 220.804 223.828C220.672 224.622 220.284 225.351 219.702 225.901C219.024 226.56 218.252 227.11 217.411 227.534C215.297 228.61 213.123 229.56 210.899 230.38C201.284 234.224 191.264 236.936 181.035 238.462C175.958 239.219 170.7 239.898 165.559 239.571C161.187 239.294 156.698 237.948 153.584 234.706C152.913 234.01 152.333 233.23 151.86 232.385C150.935 230.766 148.433 232.226 149.378 233.869C151.743 238.022 156.066 240.665 160.59 241.788C165.975 243.11 171.679 242.555 177.138 241.922C188.011 240.668 198.695 238.095 208.961 234.26C211.533 233.294 214.074 232.253 216.583 231.137C218.586 230.247 220.72 229.242 222.135 227.485C222.921 226.552 223.418 225.407 223.566 224.191C223.714 222.976 223.506 221.743 222.968 220.645C222.409 219.562 221.632 218.61 220.687 217.849C219.741 217.089 218.649 216.537 217.479 216.231C214.875 215.483 212.094 215.676 209.445 215.854C206.797 216.033 204.06 216.305 201.372 216.656C195.844 217.376 190.357 218.396 184.937 219.71C174.254 222.351 163.803 225.875 153.691 230.247C152.414 230.791 151.146 231.34 149.878 231.905C149.168 232.221 149.006 233.271 149.364 233.884C149.561 234.209 149.874 234.445 150.239 234.543C150.604 234.64 150.991 234.592 151.322 234.409L151.351 234.394Z" fill="#F5F3FF"/>
<path d="M285.835 229.945C283.737 228.225 282.214 225.894 281.473 223.268C281.254 222.658 281.149 222.012 281.165 221.363C281.196 221.141 281.283 220.931 281.418 220.752C281.552 220.574 281.73 220.433 281.933 220.343C283.196 219.644 284.549 219.128 285.953 218.809C288.957 218.073 292.032 217.678 295.123 217.631C298.506 217.503 301.894 217.483 305.277 217.503C318.889 217.568 332.475 218.708 345.912 220.913C348.964 221.388 351.98 222.07 354.94 222.957C357.706 223.813 360.644 224.911 362.989 226.663C363.929 227.366 364.604 228.267 364.458 229.489C364.311 230.712 363.478 231.86 362.749 232.736C361.176 234.59 359.223 236.076 357.026 237.091C352.619 239.234 347.44 239.873 342.544 240.165C336.463 240.537 330.365 240.555 324.282 240.219C312.351 239.531 300.332 237.166 289.522 231.84C288.184 231.18 286.868 230.479 285.576 229.737C284.038 228.856 282.638 231.246 284.19 232.127C295.411 238.561 308.106 241.669 320.909 242.748C327.282 243.259 333.681 243.361 340.066 243.055C345.574 242.818 351.258 242.392 356.443 240.343C358.991 239.386 361.336 237.95 363.356 236.111C365.505 234.097 367.699 231.162 367.121 228.024C366.533 224.807 362.798 223.125 360.159 221.957C357.155 220.664 354.028 219.684 350.828 219.032C347.542 218.329 344.213 217.839 340.889 217.374C337.276 216.866 333.653 216.429 330.02 216.062C322.84 215.343 315.659 214.916 308.478 214.78C304.888 214.711 301.288 214.711 297.678 214.78C294.323 214.787 290.974 215.06 287.661 215.597C286.056 215.88 284.48 216.309 282.952 216.879C281.517 217.428 279.892 218.047 279.035 219.428C278.114 220.913 278.506 222.778 278.981 224.347C279.431 225.817 280.091 227.212 280.939 228.49C281.776 229.77 282.796 230.917 283.965 231.895C284.226 232.145 284.572 232.285 284.932 232.285C285.292 232.285 285.638 232.145 285.899 231.895C286.028 231.765 286.13 231.611 286.2 231.441C286.27 231.271 286.306 231.089 286.306 230.905C286.306 230.721 286.27 230.539 286.2 230.369C286.13 230.199 286.028 230.045 285.899 229.915L285.835 229.945Z" fill="#F5F3FF"/>
<path d="M266.443 233.409C277.463 237.482 289.644 237.933 300.224 243.307C302.928 244.652 305.43 246.376 307.656 248.43C309.007 249.702 311.044 247.653 309.688 246.376C300.875 238.086 288.636 236.181 277.375 233.533C273.936 232.762 270.547 231.781 267.226 230.593C266.862 230.498 266.476 230.548 266.147 230.732C265.818 230.916 265.572 231.221 265.459 231.583C265.366 231.95 265.416 232.339 265.598 232.67C265.78 233.002 266.081 233.25 266.438 233.365L266.443 233.409Z" fill="#F5F3FF"/>
<path d="M221.861 232.459C213.922 234.848 206.156 237.792 198.621 241.269C196.509 242.258 194.418 243.275 192.349 244.317C192.033 244.521 191.806 244.84 191.715 245.209C191.624 245.577 191.675 245.966 191.86 246.297C192.058 246.621 192.371 246.856 192.736 246.952C193.101 247.049 193.488 247 193.818 246.817C200.992 243.157 208.409 240.007 216.016 237.388C218.209 236.63 220.419 235.918 222.645 235.255C224.412 234.726 223.663 231.92 221.881 232.454L221.861 232.459Z" fill="#F5F3FF"/>
<path d="M223.379 202.927C228.95 215.637 225.827 230.301 222.507 243.164C218.873 257.279 214.009 271.04 207.972 284.287C207.13 286.138 206.265 287.975 205.377 289.8C204.926 290.725 204.334 291.681 204.148 292.705C204.04 293.238 204.068 293.791 204.229 294.31C204.39 294.829 204.679 295.299 205.068 295.675C205.842 296.377 206.66 297.028 207.516 297.625L209.964 299.545L215.188 303.628C215.462 303.893 215.826 304.04 216.204 304.04C216.583 304.04 216.947 303.893 217.22 303.628C217.71 303.133 217.832 302.064 217.22 301.579L208.035 294.353C207.698 294.091 206.934 293.66 206.948 293.274C207.002 292.988 207.108 292.714 207.262 292.468C207.492 291.973 207.727 291.522 207.957 291.047C208.744 289.424 209.514 287.791 210.268 286.147C213.293 279.549 216.038 272.813 218.503 265.94C220.967 259.067 223.129 252.092 224.99 245.015C226.772 238.23 228.358 231.35 228.99 224.347C229.69 216.562 229.019 208.648 225.861 201.447C225.663 201.123 225.349 200.889 224.985 200.792C224.62 200.695 224.233 200.744 223.903 200.928C223.581 201.127 223.348 201.444 223.252 201.813C223.155 202.181 223.202 202.573 223.384 202.907L223.379 202.927Z" fill="#F5F3FF"/>
<path d="M315.46 239.417C317.379 239.417 319.22 237.71 319.132 235.706C319.115 234.726 318.723 233.792 318.038 233.099C317.353 232.407 316.429 232.01 315.46 231.994C313.541 231.994 311.7 233.701 311.788 235.706C311.804 236.685 312.197 237.619 312.882 238.312C313.567 239.004 314.491 239.401 315.46 239.417Z" fill="#F5F3FF"/>
<path d="M191.649 238.408C193.568 238.408 195.409 236.701 195.321 234.696C195.305 233.717 194.912 232.782 194.227 232.09C193.542 231.397 192.618 231.001 191.649 230.984C189.725 230.984 187.884 232.692 187.977 234.696C187.994 235.676 188.386 236.61 189.071 237.303C189.756 237.995 190.68 238.392 191.649 238.408Z" fill="#F5F3FF"/>
<path d="M278.105 217.819C281.845 212.687 286.868 208.663 292.42 205.684C298.176 202.68 304.361 200.603 310.75 199.527C317.827 198.233 325.052 197.984 332.199 198.79C339.22 199.626 346.152 201.858 351.993 205.941C357.035 209.465 361.344 214.474 363.483 220.294C363.762 221.041 364.002 221.808 364.213 222.576C364.702 224.417 367.557 223.635 367.047 221.789C365.241 215.226 361.143 209.48 355.919 205.234C350.118 200.527 343.146 197.666 335.846 196.365C328.199 195.004 320.336 195.147 312.664 196.241C305.884 197.159 299.281 199.114 293.081 202.037C287.054 204.927 281.483 208.965 277.209 214.182C276.636 214.88 276.088 215.602 275.554 216.33C275.456 216.498 275.392 216.685 275.366 216.878C275.34 217.072 275.352 217.269 275.401 217.458C275.45 217.647 275.535 217.824 275.652 217.98C275.769 218.135 275.916 218.266 276.083 218.364C276.421 218.553 276.818 218.603 277.192 218.503C277.566 218.404 277.888 218.162 278.09 217.829L278.105 217.819Z" fill="#F5F3FF"/>
<path d="M150.45 230.559C155.676 223.488 161.685 217.045 168.359 211.356C174.44 206.223 181.314 201.789 188.868 199.26C193.081 197.82 197.498 197.083 201.945 197.077C203.835 197.077 203.84 194.108 201.945 194.108C193.553 194.068 185.421 196.751 178.151 200.868C170.69 205.095 164.081 210.767 158.142 216.943C154.482 220.759 151.066 224.806 147.914 229.059C147.425 229.702 147.812 230.722 148.438 231.093C148.777 231.282 149.176 231.332 149.55 231.233C149.925 231.133 150.247 230.892 150.45 230.559Z" fill="#F5F3FF"/>
<path d="M319.524 370.788C319.718 370.788 319.905 370.71 320.043 370.571C320.181 370.432 320.258 370.243 320.258 370.046C320.258 369.849 320.181 369.66 320.043 369.521C319.905 369.382 319.718 369.304 319.524 369.304C319.329 369.304 319.142 369.382 319.004 369.521C318.867 369.66 318.789 369.849 318.789 370.046C318.789 370.243 318.867 370.432 319.004 370.571C319.142 370.71 319.329 370.788 319.524 370.788Z" fill="#F5F3FF"/>
</svg>
